<?xml version="1.0" encoding="UTF-8" standalone="no"?>
<svg
   width="1980"
   height="1280"
   viewBox="0 0 1980 1280"
   fill="none"
   version="1.1"
   id="svg20"
   sodipodi:docname="background-line.svg"
   inkscape:version="1.4.2 (ebf0e940, 2025-05-08)"
   xmlns:inkscape="http://www.inkscape.org/namespaces/inkscape"
   xmlns:sodipodi="http://sodipodi.sourceforge.net/DTD/sodipodi-0.dtd"
   xmlns="http://www.w3.org/2000/svg"
   xmlns:svg="http://www.w3.org/2000/svg">
  <defs
     id="defs20" />
  <sodipodi:namedview
     id="namedview20"
     pagecolor="#ffffff"
     bordercolor="#999999"
     borderopacity="1"
     inkscape:showpageshadow="2"
     inkscape:pageopacity="0"
     inkscape:pagecheckerboard="0"
     inkscape:deskcolor="#d1d1d1"
     inkscape:zoom="0.44699067"
     inkscape:cx="961.98876"
     inkscape:cy="723.72875"
     inkscape:window-width="1920"
     inkscape:window-height="1144"
     inkscape:window-x="0"
     inkscape:window-y="43"
     inkscape:window-maximized="0"
     inkscape:current-layer="svg20" />
  <path
     d="M 523.12447,-36.145661 270.90126,246.29178"
     stroke="#0097ff"
     stroke-width="15.764"
     stroke-linecap="round"
     stroke-linejoin="round"
     id="path1" />
  <path
     d="M 1956.3303,531.35655 1704.1071,813.79399"
     stroke="#0097ff"
     stroke-width="39.4099"
     stroke-linecap="round"
     stroke-linejoin="round"
     id="path3" />
  <path
     d="M 1947.9695,146.54206 1695.7463,428.9795"
     stroke="#0097ff"
     stroke-width="15.764"
     stroke-linecap="round"
     stroke-linejoin="round"
     id="path4" />
  <path
     d="M 1178.6421,-8.5587481 960.57409,243.66446"
     stroke="#e11d5b"
     stroke-miterlimit="10"
     stroke-linecap="round"
     id="path8"
     style="stroke-width:1.31366" />
  <path
     d="M 877.81335,196.37261 780.60232,309.34758"
     stroke="#00ac7e"
     stroke-miterlimit="10"
     stroke-linecap="round"
     id="path9"
     style="stroke-width:1.31366" />
  <path
     d="M 159.23995,139.88512 22.619045,298.83828"
     stroke="#00ac7e"
     stroke-miterlimit="10"
     stroke-linecap="round"
     id="path11"
     style="stroke-width:1.31366" />
  <path
     d="M 1547.7812,-26.950023 1386.2007,158.27639"
     stroke="#00ac7e"
     stroke-width="19.7049"
     stroke-miterlimit="10"
     stroke-linecap="round"
     id="path12" />
  <path
     d="M 975.69496,1064.1939 814.11445,1249.4203"
     stroke="#00ac7e"
     stroke-width="19.7049"
     stroke-miterlimit="10"
     stroke-linecap="round"
     id="path12-9" />
  <path
     d="M 894.89096,-30.891011 733.31047,154.33541"
     stroke="#ff8100"
     stroke-width="19.7049"
     stroke-miterlimit="10"
     stroke-linecap="round"
     id="path13" />
  <path
     d="M 390.36936,285.526 228.78887,470.75242"
     stroke="#e11d5b"
     stroke-width="19.7049"
     stroke-miterlimit="10"
     stroke-linecap="round"
     id="path15" />
  <path
     d="M 1935.3117,-24.322698 1773.7312,160.90372"
     stroke="#ffe100"
     stroke-width="9.19564"
     stroke-miterlimit="10"
     stroke-linecap="round"
     id="path16" />
  <path
     d="m 1049.9031,439.40017 -80.13337,91.95638"
     stroke="#ff8100"
     stroke-width="9.19564"
     stroke-miterlimit="10"
     stroke-linecap="round"
     id="path17" />
  <path
     d="M 1377.0051,587.84404 1215.4246,773.07046"
     stroke="#ff8100"
     stroke-width="19.7049"
     stroke-miterlimit="10"
     stroke-linecap="round"
     id="path18" />
  <path
     d="m 1090.6661,660.1743 c 8.728,0 15.8034,-7.07539 15.8034,-15.80336 0,-8.72798 -7.0754,-15.80336 -15.8034,-15.80336 -8.728,0 -15.8034,7.07538 -15.8034,15.80336 0,8.72797 7.0754,15.80336 15.8034,15.80336 z"
     fill="#e11d5b"
     id="path19"
     style="stroke-width:1.31366" />
  <path
     d="m 1321.9448,1223.9025 c 8.728,0 15.8034,-7.0754 15.8034,-15.8033 0,-8.728 -7.0754,-15.8034 -15.8034,-15.8034 -8.728,0 -15.8034,7.0754 -15.8034,15.8034 0,8.7279 7.0754,15.8033 15.8034,15.8033 z"
     fill="#e11d5b"
     id="path19-5"
     style="stroke-width:1.31366" />
  <path
     d="m 623.9995,94.589087 c 15.23586,0 27.58692,-12.35105 27.58692,-27.58691 0,-15.23586 -12.35106,-27.58691 -27.58692,-27.58691 -15.23585,0 -27.58691,12.35105 -27.58691,27.58691 0,15.23586 12.35106,27.58691 27.58691,27.58691 z"
     fill="#ffe100"
     id="path20"
     style="stroke-width:1.31366" />
  <path
     d="M 263.21179,798.5867 10.988588,1081.024"
     stroke="#0097ff"
     stroke-width="15.764"
     stroke-linecap="round"
     stroke-linejoin="round"
     id="path1-6" />
  <path
     d="M 1738.0022,18.66524 1552.7758,226.22392"
     stroke="#ffe100"
     stroke-width="39.4099"
     stroke-linecap="round"
     stroke-linejoin="round"
     id="path2-2" />
  <path
     d="M 490.57594,972.34461 238.35274,1254.7821"
     stroke="#0097ff"
     stroke-width="39.4099"
     stroke-linecap="round"
     stroke-linejoin="round"
     id="path3-7"
     style="stroke:#00ac7e;stroke-opacity:1" />
  <path
     d="M 1976.6536,923.10759 1724.4304,1205.545"
     stroke="#0097ff"
     stroke-width="15.764"
     stroke-linecap="round"
     stroke-linejoin="round"
     id="path4-0" />
  <path
     d="M 1677.751,320.06691 1567.4033,447.49217"
     stroke="#e11d5b"
     stroke-width="6.56831"
     stroke-miterlimit="10"
     stroke-linecap="round"
     id="path5-3" />
  <path
     d="M 1088.7553,806.03892 870.68734,1058.2621"
     stroke="#e11d5b"
     stroke-miterlimit="10"
     stroke-linecap="round"
     id="path8-9"
     style="stroke-width:1.31366" />
  <path
     d="m 787.9266,1010.9703 -97.21103,112.975"
     stroke="#00ac7e"
     stroke-miterlimit="10"
     stroke-linecap="round"
     id="path9-1"
     style="stroke-width:1.31366" />
  <path
     d="M 318.94907,593.22563 100.88109,845.4488"
     stroke="#e11d5b"
     stroke-miterlimit="10"
     stroke-linecap="round"
     id="path10-7"
     style="stroke-width:1.31366" />
  <path
     d="M 1712.9334,572.87809 1551.3529,758.10447"
     stroke="#00ac7e"
     stroke-width="19.7049"
     stroke-miterlimit="10"
     stroke-linecap="round"
     id="path12-3" />
  <path
     d="M 805.00421,783.7067 643.42372,968.93307"
     stroke="#ff8100"
     stroke-width="19.7049"
     stroke-miterlimit="10"
     stroke-linecap="round"
     id="path13-6" />
  <path
     d="M 198.887,1082.1927 37.30651,1267.4191"
     stroke="#ff8100"
     stroke-width="19.7049"
     stroke-miterlimit="10"
     stroke-linecap="round"
     id="path13-6-5" />
  <path
     d="M 714.3615,308.16086 552.781,493.38728"
     stroke="#e11d5b"
     stroke-width="19.7049"
     stroke-miterlimit="10"
     stroke-linecap="round"
     id="path15-5" />
  <path
     d="M 1840.9506,805.93529 1679.3701,991.16167"
     stroke="#ffe100"
     stroke-width="9.19564"
     stroke-miterlimit="10"
     stroke-linecap="round"
     id="path16-8" />
  <path
     d="m 1051.7409,1182.4079 -80.13342,91.9564"
     stroke="#ff8100"
     stroke-width="9.19564"
     stroke-miterlimit="10"
     stroke-linecap="round"
     id="path17-1" />
  <path
     d="m 1665.2023,1093.7104 -161.5805,185.2264"
     stroke="#ff8100"
     stroke-width="19.7049"
     stroke-miterlimit="10"
     stroke-linecap="round"
     id="path18-4" />
  <path
     d="m 72.348279,615.69366 c 8.728,0 15.8034,-7.0754 15.8034,-15.8034 0,-8.728 -7.0754,-15.8034 -15.8034,-15.8034 -8.72794,0 -15.80332,7.0754 -15.80332,15.8034 0,8.728 7.07538,15.8034 15.80332,15.8034 z"
     fill="#e11d5b"
     id="path19-7"
     style="stroke-width:1.31366" />
  <path
     d="m 690.71557,672.04538 c 15.23586,0 27.58691,-12.35105 27.58691,-27.58691 0,-15.23586 -12.35105,-27.58692 -27.58691,-27.58692 -15.23586,0 -27.58691,12.35106 -27.58691,27.58692 0,15.23586 12.35105,27.58691 27.58691,27.58691 z"
     fill="#ffe100"
     id="path20-1"
     style="stroke-width:1.31366" />
  <path
     d="m 1506.1075,1040.7322 c 15.2359,0 27.5869,-12.3511 27.5869,-27.587 0,-15.23582 -12.351,-27.58688 -27.5869,-27.58688 -15.2358,0 -27.5869,12.35106 -27.5869,27.58688 0,15.2359 12.3511,27.587 27.5869,27.587 z"
     fill="#ffe100"
     id="path20-1-3"
     style="stroke-width:1.31366" />
</svg>
